<?xml version="1.0" encoding="UTF-8" standalone="no"?><!-- Generator: Gravit.io --><svg xmlns="http://www.w3.org/2000/svg" xmlns:xlink="http://www.w3.org/1999/xlink" style="isolation:isolate" viewBox="1280 469.094 491.5 334.812" width="491.5pt" height="334.812pt"><g><path d=" M 1281.5 607.983 L 1319.454 568.031 L 1375.387 607.983 L 1433.317 627.959 L 1499.238 607.983 L 1610.437 659.92 L 1631.745 703.868 L 1531.199 747.815 L 1401.356 689.884 L 1319.454 703.868 L 1281.5 607.983 Z " fill="rgb(247,245,245)" vector-effect="non-scaling-stroke" stroke-width="1" stroke="rgb(247,245,245)" stroke-linejoin="miter" stroke-linecap="square" stroke-miterlimit="3"/><path d=" M 1413.171 541.697 L 1319.454 568.031 L 1375.387 607.983 L 1413.171 541.697 Z " fill="rgb(255,255,255)" vector-effect="non-scaling-stroke" stroke-width="1" stroke="rgb(255,255,255)" stroke-linejoin="miter" stroke-linecap="square" stroke-miterlimit="3"/><path d=" M 1464.523 514.046 L 1413.171 541.697 L 1375.387 607.983 L 1433.317 627.959 L 1469.79 581.198 L 1464.523 514.046 Z " fill="rgb(247,245,245)" vector-effect="non-scaling-stroke" stroke-width="1" stroke="rgb(247,245,245)" stroke-linejoin="miter" stroke-linecap="square" stroke-miterlimit="3"/><path d=" M 1544.842 525.896 L 1464.523 514.046 L 1469.79 581.198 L 1433.317 627.959 L 1499.238 607.983 L 1567.226 640.45 L 1544.842 525.896 Z " fill="rgb(255,255,255)" vector-effect="non-scaling-stroke" stroke-width="1" stroke="rgb(255,255,255)" stroke-linejoin="miter" stroke-linecap="square" stroke-miterlimit="3"/><path d=" M 1621.211 525.896 L 1544.842 525.896 L 1567.226 640.45 L 1610.438 659.92 L 1621.211 525.896 Z " fill="rgb(232,232,232)" vector-effect="non-scaling-stroke" stroke-width="1" stroke="rgb(232,232,232)" stroke-linejoin="miter" stroke-linecap="square" stroke-miterlimit="3"/><path d=" M 1499.238 514.046 L 1610.438 470.594 L 1689.681 514.046 L 1726.548 620.699 L 1610.438 586.465 L 1621.211 532.48 L 1544.842 525.896 L 1469.79 514.046 L 1499.238 514.046 Z " fill="rgb(255,255,255)" vector-effect="non-scaling-stroke" stroke-width="1" stroke="rgb(255,255,255)" stroke-linejoin="miter" stroke-linecap="square" stroke-miterlimit="3"/><path d=" M 1621.211 676.001 L 1689.681 659.92 L 1760.783 640.45 L 1726.548 620.699 L 1610.438 586.465 L 1610.438 659.92 L 1621.211 676.001 Z " fill="rgb(247,245,245)" vector-effect="non-scaling-stroke" stroke-width="1" stroke="rgb(247,245,245)" stroke-linejoin="miter" stroke-linecap="square" stroke-miterlimit="3"/><path d=" M 1327.585 703.868 L 1433.317 776.072 L 1536.942 776.072 L 1621.211 802.406 L 1689.681 766.855 L 1631.745 703.868 L 1531.199 741.837 L 1401.356 689.884 L 1327.585 703.868 Z " fill="rgb(195,195,195)" vector-effect="non-scaling-stroke" stroke-width="1" stroke="rgb(195,195,195)" stroke-linejoin="miter" stroke-linecap="square" stroke-miterlimit="3"/><path d=" M 1705.481 659.92 L 1689.681 766.855 L 1631.745 703.868 L 1610.438 659.92 L 1650.179 666.784 L 1705.481 659.92 Z " fill="rgb(209,209,209)" vector-effect="non-scaling-stroke" stroke-width="1" stroke="rgb(209,209,209)" stroke-linejoin="miter" stroke-linecap="square" stroke-miterlimit="3"/><path d=" M 1750.249 640.45 L 1770 715.503 L 1689.681 766.855 L 1705.481 676.001 L 1676.513 659.92 L 1750.249 640.45 Z " fill="rgb(232,232,232)" vector-effect="non-scaling-stroke" stroke-width="1" stroke="rgb(232,232,232)" stroke-linejoin="miter" stroke-linecap="square" stroke-miterlimit="3"/></g></svg>