<?xml version="1.0" encoding="UTF-8" standalone="no"?><!-- Generator: Gravit.io --><svg xmlns="http://www.w3.org/2000/svg" xmlns:xlink="http://www.w3.org/1999/xlink" style="isolation:isolate" viewBox="151 397.5 395 386" width="395pt" height="386pt"><g><g><rect x="152.5" y="551" width="392" height="18" transform="matrix(1,0,0,1,0,0)" fill="rgb(170,240,162)"/><path d=" M 193.5 520 L 152.938 551 L 544.062 551 L 544.5 551 L 499.5 520 L 193.5 520 Z " fill="rgb(153,219,148)"/><path d=" M 152.938 569 L 152.5 610 L 246.5 610 L 246.5 569 L 152.938 569 Z " fill="rgb(209,209,209)" vector-effect="non-scaling-stroke" stroke-width="1" stroke="rgb(209,209,209)" stroke-linejoin="miter" stroke-linecap="square" stroke-miterlimit="3"/><path d=" M 246.5 569 L 509.5 569 L 509.5 610 L 246.5 610 L 246.5 569 Z " fill="rgb(191,191,191)" vector-effect="non-scaling-stroke" stroke-width="1" stroke="rgb(191,191,191)" stroke-linejoin="miter" stroke-linecap="square" stroke-miterlimit="3"/><path d=" M 544.062 569 L 509.5 569 L 509.5 610 L 544.062 610 L 544.062 569 Z " fill="rgb(138,136,136)" vector-effect="non-scaling-stroke" stroke-width="1" stroke="rgb(138,136,136)" stroke-linejoin="miter" stroke-linecap="square" stroke-miterlimit="3"/><path d=" M 509.5 610 L 301.5 782 L 246.5 610 L 509.5 610 Z " fill="rgb(162,162,162)" vector-effect="non-scaling-stroke" stroke-width="1" stroke="rgb(162,162,162)" stroke-linejoin="miter" stroke-linecap="square" stroke-miterlimit="3"/><path d=" M 152.938 610 L 301.5 782 L 246.5 610 L 152.938 610 Z " fill="rgb(185,185,185)" vector-effect="non-scaling-stroke" stroke-width="1" stroke="rgb(185,185,185)" stroke-linejoin="miter" stroke-linecap="square" stroke-miterlimit="3"/><path d=" M 509.5 610 L 544.062 610 L 301.5 782 L 509.5 610 Z " fill="rgb(116,116,116)" vector-effect="non-scaling-stroke" stroke-width="1" stroke="rgb(116,116,116)" stroke-linejoin="miter" stroke-linecap="square" stroke-miterlimit="3"/><path d=" M 509.5 551 L 544.062 551 L 544.062 569 L 509.5 569 L 509.5 551 Z " fill="rgb(151,195,133)" vector-effect="non-scaling-stroke" stroke-width="1" stroke="rgb(151,195,133)" stroke-linejoin="miter" stroke-linecap="square" stroke-miterlimit="3"/><path d=" M 499.5 520 L 509.5 551 L 544.5 551 L 499.5 520 Z " fill="rgb(115,153,100)" vector-effect="non-scaling-stroke" stroke-width="1" stroke="rgb(115,153,100)" stroke-linejoin="miter" stroke-linecap="square" stroke-miterlimit="3"/></g><path d=" M 177.718 530.134 L 193.718 492.134 L 219.718 505.134 L 259.718 404.134 L 280.718 437.134 L 296.718 422.134 L 337.718 524.134 L 193.718 524.134 L 177.718 530.134 Z " fill="rgb(166,255,139)" vector-effect="non-scaling-stroke" stroke-width="1" stroke="rgb(166,255,139)" stroke-linejoin="miter" stroke-linecap="square" stroke-miterlimit="3"/><path d=" M 193.718 526 L 207.5 516 L 219.718 516 L 238.5 494 L 259.718 439 L 273.5 467 L 290.5 457 L 303.5 507 L 315.5 501 L 329.5 526 L 193.718 526 Z " fill="rgb(151,195,133)" vector-effect="non-scaling-stroke" stroke-width="1" stroke="rgb(151,195,133)" stroke-linejoin="miter" stroke-linecap="square" stroke-miterlimit="3"/><path d=" M 498.5 520 L 498.5 431.877 L 478.5 431.877 L 478.5 469.588 L 457.5 469.588 L 457.5 410.604 L 428.5 410.604 L 428.5 474.423 L 409.5 437.678 L 389.5 464.753 L 389.5 399 L 357.5 399 L 357.5 464.753 L 357.5 520 L 498.5 520 Z " fill="rgb(159,207,215)" vector-effect="non-scaling-stroke" stroke-width="1" stroke="rgb(159,207,215)" stroke-linejoin="miter" stroke-linecap="square" stroke-miterlimit="3"/><path d=" M 315.5 541.5 L 315.5 488 L 367.5 488 L 367.5 541.5 L 315.5 541.5 Z " fill="rgb(223,220,183)" vector-effect="non-scaling-stroke" stroke-width="1" stroke="rgb(223,220,183)" stroke-linejoin="miter" stroke-linecap="square" stroke-miterlimit="3"/><path d=" M 367.5 541.5 L 367.5 488 L 397.5 474 L 397.5 526 L 367.5 541.5 Z " fill="rgb(195,193,156)" vector-effect="non-scaling-stroke" stroke-width="1" stroke="rgb(195,193,156)" stroke-linejoin="miter" stroke-linecap="square" stroke-miterlimit="3"/><path d=" M 310.5 486 L 369.793 486 L 401.5 472 L 348.5 472 L 310.5 486 Z " fill="rgb(209,209,209)" vector-effect="non-scaling-stroke" stroke-width="1" stroke="rgb(209,209,209)" stroke-linejoin="miter" stroke-linecap="square" stroke-miterlimit="3"/><path d=" M 369.793 486 L 369.793 491.512 L 401.5 477 L 401.5 472 L 369.793 486 Z " fill="rgb(138,136,136)" vector-effect="non-scaling-stroke" stroke-width="1" stroke="rgb(138,136,136)" stroke-linejoin="miter" stroke-linecap="square" stroke-miterlimit="3"/><path d=" M 310.5 486 L 310.5 491.378 L 369.793 491.378 L 369.793 486 L 310.5 486 Z " fill="rgb(185,185,185)" vector-effect="non-scaling-stroke" stroke-width="1" stroke="rgb(185,185,185)" stroke-linejoin="miter" stroke-linecap="square" stroke-miterlimit="3"/><rect x="319.5" y="498" width="14" height="9.75" transform="matrix(1,0,0,1,0,0)" fill="rgb(162,240,255)"/><rect x="343.5" y="498" width="14" height="9.75" transform="matrix(1,0,0,1,0,0)" fill="rgb(162,240,255)"/><rect x="319.5" y="514.75" width="14" height="9.75" transform="matrix(1,0,0,1,0,0)" fill="rgb(162,240,255)"/><rect x="343.5" y="514.75" width="14" height="9.75" transform="matrix(1,0,0,1,0,0)" fill="rgb(162,240,255)"/></g></svg>