<?xml version="1.0" encoding="UTF-8" standalone="no"?><!-- Generator: Gravit.io --><svg xmlns="http://www.w3.org/2000/svg" xmlns:xlink="http://www.w3.org/1999/xlink" style="isolation:isolate" viewBox="0 0 50 50" width="50pt" height="50pt"><defs><clipPath id="_clipPath_sJDqjoyNEebKtBrG827hqsejSBsOvY3B"><rect width="50" height="50"/></clipPath></defs><g clip-path="url(#_clipPath_sJDqjoyNEebKtBrG827hqsejSBsOvY3B)"><g><path d="M 99.011 13 L 141.671 13 C 142.405 13 143 13.595 143 14.329 L 143 55.749 C 143 56.482 142.405 57.077 141.671 57.077 L 99.011 57.077 C 98.278 57.077 97.682 56.482 97.682 55.749 L 97.682 14.329 C 97.682 13.595 98.278 13 99.011 13 Z" style="stroke:none;fill:#49BD9E;stroke-miterlimit:10;"/><path d="M 99.011 13 L 141.671 13 C 142.405 13 143 13.595 143 14.329 L 143 55.749 C 143 56.482 142.405 57.077 141.671 57.077 L 99.011 57.077 C 98.278 57.077 97.682 56.482 97.682 55.749 L 97.682 14.329 C 97.682 13.595 98.278 13 99.011 13 Z" style="fill:none;stroke:#49BD9E;stroke-width:2;stroke-linecap:square;stroke-miterlimit:2;"/><g><g><circle vector-effect="non-scaling-stroke" cx="120.62451431467798" cy="35.03864894267791" r="16.503783237530826" fill="rgb(73,189,158)"/></g><path d="M 114.199 33.489 L 120.576 39.949 C 121.35 40.734 121.479 41.865 120.862 42.474 L 120.862 42.474 C 120.245 43.083 119.115 42.94 118.34 42.155 L 111.964 35.695 C 111.189 34.91 111.061 33.779 111.678 33.17 L 111.678 33.17 C 112.295 32.561 113.425 32.704 114.199 33.489 Z" style="stroke:none;fill:#EBEBEB;stroke-linecap:square;stroke-miterlimit:2;"/><path d="M 129.395 30.235 L 121.643 41.611 C 120.903 42.696 119.722 43.18 119.005 42.692 L 119.005 42.692 C 118.289 42.204 118.308 40.927 119.047 39.843 L 126.799 28.466 C 127.538 27.381 128.72 26.897 129.436 27.385 L 129.436 27.385 C 130.152 27.873 130.134 29.15 129.395 30.235 Z" style="stroke:none;fill:#EBEBEB;stroke-linecap:square;stroke-miterlimit:2;"/></g></g><g><rect x="97.31" y="70.204" width="26.492" height="8.704" transform="matrix(0.707,0.707,-0.707,0.707,85.1,-56.338)" fill="rgb(209,209,209)"/><rect x="97.31" y="70.204" width="26.492" height="8.704" transform="matrix(0.707,-0.707,0.707,0.707,-20.338,100.012)" fill="rgb(209,209,209)"/></g><g><g><path d="M 5.557 8.547 L 44.443 8.547 C 45.089 8.547 45.613 9.072 45.613 9.718 L 45.613 44.958 C 45.613 45.604 45.089 46.129 44.443 46.129 L 5.557 46.129 C 4.911 46.129 4.387 45.604 4.387 44.958 L 4.387 9.718 C 4.387 9.072 4.911 8.547 5.557 8.547 Z" style="stroke:none;fill:#49BD9E;stroke-linecap:square;stroke-miterlimit:2;"/><path d="M 5.557 8.547 L 44.443 8.547 C 45.089 8.547 45.613 9.072 45.613 9.718 L 45.613 44.958 C 45.613 45.604 45.089 46.129 44.443 46.129 L 5.557 46.129 C 4.911 46.129 4.387 45.604 4.387 44.958 L 4.387 9.718 C 4.387 9.072 4.911 8.547 5.557 8.547 Z" style="fill:none;stroke:#49BD9E;stroke-width:2;stroke-linecap:square;stroke-miterlimit:2;"/></g><text transform="matrix(0.668,0,0,0.668,11.886,52.511)" style="font-family:'Spinnaker';font-weight:400;font-size:60px;font-style:normal;fill:#ffffff;stroke:none;">+</text></g></g></svg>