<?xml version="1.0" encoding="UTF-8" standalone="no"?><!-- Generator: Gravit.io --><svg xmlns="http://www.w3.org/2000/svg" xmlns:xlink="http://www.w3.org/1999/xlink" style="isolation:isolate" viewBox="1304.375 737.129 30.743 30.743" width="30.743pt" height="30.743pt"><g><g><circle vector-effect="non-scaling-stroke" cx="1319.7461709153954" cy="752.5000000000001" r="15.37132784191408" fill="rgb(73,189,158)"/></g><path d="M 1313.762 751.056 L 1319.701 757.073 C 1320.422 757.804 1320.542 758.858 1319.967 759.425 L 1319.967 759.425 C 1319.392 759.992 1318.34 759.859 1317.619 759.128 L 1311.68 753.112 C 1310.958 752.381 1310.839 751.327 1311.414 750.76 L 1311.414 750.76 C 1311.988 750.192 1313.04 750.325 1313.762 751.056 Z" style="stroke:none;fill:#EBEBEB;stroke-miterlimit:10;"/><path d="M 1327.914 748.026 L 1320.694 758.622 C 1320.006 759.632 1318.905 760.083 1318.238 759.629 L 1318.238 759.629 C 1317.571 759.174 1317.588 757.985 1318.277 756.974 L 1325.497 746.378 C 1326.185 745.368 1327.286 744.917 1327.953 745.371 L 1327.953 745.371 C 1328.62 745.826 1328.603 747.015 1327.914 748.026 Z" style="stroke:none;fill:#EBEBEB;stroke-miterlimit:10;"/></g></svg>