<?xml version="1.0" encoding="UTF-8" standalone="no"?><!-- Generator: Gravit.io --><svg xmlns="http://www.w3.org/2000/svg" xmlns:xlink="http://www.w3.org/1999/xlink" style="isolation:isolate" viewBox="1030.5 743.072 51 25.711" width="51pt" height="25.711pt"><g><path d=" M 1032 756.424 Q 1056.703 732.719 1080 756.424 Q 1054.875 778.141 1032 756.424 Z " fill="rgb(73,189,158)" vector-effect="non-scaling-stroke" stroke-width="1" stroke="rgb(73,189,158)" stroke-linejoin="miter" stroke-linecap="square" stroke-miterlimit="3"/><ellipse vector-effect="non-scaling-stroke" cx="1056.109797007005" cy="756.1525778419141" rx="10.51525368663215" ry="9.731336277718242" fill="rgb(255,255,255)" stroke-width="2" stroke="rgb(73,189,158)" stroke-linejoin="miter" stroke-linecap="square" stroke-miterlimit="3"/><path d=" M 1061.347 752.837 C 1060.288 751.224 1058.46 750.168 1056.387 750.168 C 1053.084 750.168 1050.403 752.85 1050.403 756.153 C 1050.403 759.456 1053.084 762.137 1056.387 762.137 C 1059.69 762.137 1062.372 759.456 1062.372 756.153 C 1062.372 755.842 1062.348 755.536 1062.291 755.243 C 1062.047 756.17 1061.203 756.851 1060.201 756.851 C 1059.003 756.851 1058.03 755.878 1058.03 754.68 C 1058.03 753.481 1059.003 752.509 1060.201 752.509 C 1060.621 752.509 1061.014 752.628 1061.347 752.837 Z " fill-rule="evenodd" fill="rgb(73,189,158)" vector-effect="non-scaling-stroke" stroke-width="2" stroke="rgb(255,255,255)" stroke-linejoin="miter" stroke-linecap="square" stroke-miterlimit="3"/></g></svg>