<?xml version="1.0" encoding="UTF-8" standalone="no"?><!-- Generator: Gravit.io --><svg xmlns="http://www.w3.org/2000/svg" xmlns:xlink="http://www.w3.org/1999/xlink" style="isolation:isolate" viewBox="1338 389.387 83 83" width="83pt" height="83pt"><g><circle vector-effect="non-scaling-stroke" cx="1379.5000000000002" cy="430.8867043263504" r="23.5" fill="rgb(195,195,195)"/><path d=" M 1365.274 440.594 C 1362.779 437.672 1361.271 433.88 1361.271 429.738 C 1361.271 420.506 1368.767 413.01 1377.999 413.01 C 1382.723 413.01 1386.991 414.971 1390 418.158 L 1365.274 440.594 L 1365.274 440.594 Z " fill="rgb(255,255,255)"/><path d=" M 1394.183 422.071 C 1396.649 425.018 1398.12 428.825 1398.079 432.966 C 1397.988 442.198 1390.418 449.62 1381.186 449.529 C 1376.463 449.482 1372.214 447.478 1369.237 444.262 L 1394.183 422.071 L 1394.183 422.071 Z " fill="rgb(255,255,255)"/><path d=" M 1364.337 440.594 C 1361.842 437.672 1360.333 433.88 1360.333 429.738 C 1360.333 420.506 1367.829 413.01 1377.062 413.01 C 1381.785 413.01 1386.054 414.971 1389.063 418.158 L 1364.337 440.594 L 1364.337 440.594 Z " fill="rgb(255,255,255)"/></g></svg>