<?xml version="1.0" encoding="UTF-8" standalone="no"?><!-- Generator: Gravit.io --><svg xmlns="http://www.w3.org/2000/svg" xmlns:xlink="http://www.w3.org/1999/xlink" style="isolation:isolate" viewBox="1846 208.686 42 42" width="42pt" height="42pt"><g><path d=" M 1853.157 226.639 L 1850.742 226.639 C 1849.78 226.639 1849 227.419 1849 228.38 L 1849 230.993 C 1849 231.954 1849.78 232.734 1850.742 232.734 L 1853.157 232.734 C 1853.51 234.399 1854.145 235.96 1855.012 237.365 L 1853.367 239.009 C 1852.677 239.699 1852.677 240.819 1853.367 241.509 L 1855.177 243.319 C 1855.867 244.009 1856.987 244.009 1857.677 243.319 L 1859.218 241.779 C 1860.595 242.724 1862.142 243.439 1863.803 243.871 L 1863.803 245.924 C 1863.803 246.897 1864.593 247.686 1865.566 247.686 L 1868.285 247.686 C 1869.258 247.686 1870.048 246.897 1870.048 245.924 L 1870.048 244.117 C 1871.898 243.791 1873.629 243.118 1875.17 242.167 L 1876.341 243.338 C 1877.021 244.018 1878.125 244.018 1878.804 243.338 L 1880.652 241.491 C 1881.331 240.811 1881.331 239.707 1880.652 239.028 L 1879.585 237.961 C 1880.65 236.407 1881.424 234.639 1881.828 232.734 L 1883.258 232.734 C 1884.22 232.734 1885 231.954 1885 230.993 L 1885 228.38 C 1885 227.419 1884.22 226.639 1883.258 226.639 L 1881.828 226.639 C 1881.424 224.734 1880.65 222.965 1879.585 221.412 L 1880.633 220.363 C 1881.323 219.674 1881.323 218.553 1880.633 217.864 L 1878.823 216.053 C 1878.133 215.363 1877.013 215.363 1876.323 216.053 L 1875.17 217.206 C 1873.629 216.255 1871.898 215.581 1870.048 215.255 L 1870.048 213.449 C 1870.048 212.476 1869.258 211.686 1868.285 211.686 L 1865.566 211.686 C 1864.593 211.686 1863.803 212.476 1863.803 213.449 L 1863.803 215.502 C 1862.142 215.933 1860.595 216.649 1859.218 217.594 L 1857.659 216.035 C 1856.979 215.355 1855.875 215.355 1855.196 216.035 L 1853.348 217.882 C 1852.669 218.562 1852.669 219.665 1853.348 220.345 L 1855.012 222.008 C 1854.145 223.412 1853.51 224.974 1853.157 226.639 Z " fill-rule="evenodd" fill="rgb(255,255,255)" vector-effect="non-scaling-stroke" stroke-width="2" stroke="rgb(73,189,158)" stroke-linejoin="miter" stroke-linecap="square" stroke-miterlimit="3"/><circle vector-effect="non-scaling-stroke" cx="1867.4922684947735" cy="229.68636524932054" r="6.530701868098504" fill="rgb(73,189,158)" stroke-width="1" stroke="rgb(73,189,158)" stroke-linejoin="miter" stroke-linecap="square" stroke-miterlimit="3"/></g></svg>