<?xml version="1.0" encoding="UTF-8" standalone="no"?><!-- Generator: Gravit.io --><svg xmlns="http://www.w3.org/2000/svg" xmlns:xlink="http://www.w3.org/1999/xlink" style="isolation:isolate" viewBox="0 0 50 50" width="50pt" height="50pt"><defs><clipPath id="_clipPath_UypB8tj0fjnyUVZeWkhJ74b1elj2uiYj"><rect width="50" height="50"/></clipPath></defs><g clip-path="url(#_clipPath_UypB8tj0fjnyUVZeWkhJ74b1elj2uiYj)"><g><path d="M 3.67 2.961 L 46.33 2.961 C 47.063 2.961 47.659 3.557 47.659 4.29 L 47.659 45.71 C 47.659 46.443 47.063 47.039 46.33 47.039 L 3.67 47.039 C 2.937 47.039 2.341 46.443 2.341 45.71 L 2.341 4.29 C 2.341 3.557 2.937 2.961 3.67 2.961 Z" style="stroke:none;fill:#49BD9E;stroke-miterlimit:10;"/><path d="M 3.67 2.961 L 46.33 2.961 C 47.063 2.961 47.659 3.557 47.659 4.29 L 47.659 45.71 C 47.659 46.443 47.063 47.039 46.33 47.039 L 3.67 47.039 C 2.937 47.039 2.341 46.443 2.341 45.71 L 2.341 4.29 C 2.341 3.557 2.937 2.961 3.67 2.961 Z" style="fill:none;stroke:#49BD9E;stroke-width:2;stroke-linecap:square;stroke-miterlimit:2;"/><g><g><circle vector-effect="non-scaling-stroke" cx="25.283279722136278" cy="25.000000000000554" r="16.50378323753082" fill="rgb(73,189,158)"/></g><path d="M 18.858 23.45 L 25.234 29.91 C 26.009 30.695 26.137 31.826 25.52 32.435 L 25.52 32.435 C 24.904 33.044 23.774 32.901 22.999 32.117 L 16.623 25.657 C 15.848 24.872 15.72 23.74 16.337 23.131 L 16.337 23.131 C 16.954 22.522 18.084 22.665 18.858 23.45 Z" style="stroke:none;fill:#EBEBEB;stroke-linecap:square;stroke-miterlimit:2;"/><path d="M 34.053 20.196 L 26.301 31.573 C 25.562 32.657 24.38 33.142 23.664 32.654 L 23.664 32.654 C 22.948 32.166 22.966 30.889 23.706 29.804 L 31.458 18.427 C 32.197 17.343 33.379 16.858 34.095 17.346 L 34.095 17.346 C 34.811 17.834 34.793 19.111 34.053 20.196 Z" style="stroke:none;fill:#EBEBEB;stroke-linecap:square;stroke-miterlimit:2;"/></g></g></g></svg>