<?xml version="1.0" encoding="UTF-8" standalone="no"?><!-- Generator: Gravit.io --><svg xmlns="http://www.w3.org/2000/svg" xmlns:xlink="http://www.w3.org/1999/xlink" style="isolation:isolate" viewBox="0 0 1920 1080" width="1920pt" height="1080pt"><defs><clipPath id="_clipPath_5Ym99TZl6FPF1lTNskflUP6U97Fa0tUO"><rect width="1920" height="1080"/></clipPath></defs><g clip-path="url(#_clipPath_5Ym99TZl6FPF1lTNskflUP6U97Fa0tUO)"><linearGradient id="_lgradient_1" x1="0.8552152777777775" y1="0.013851851851851865" x2="0.7348912037037034" y2="1.2234814814814818" gradientTransform="matrix(1929,0,0,1080,0,0)" gradientUnits="userSpaceOnUse"><stop offset="2.1739130434782608%" stop-opacity="1" style="stop-color:rgb(255,255,255)"/><stop offset="96.08695652173913%" stop-opacity="1" style="stop-color:rgb(93,233,255)"/><stop offset="99.1304347826087%" stop-opacity="1" style="stop-color:rgb(197,255,165)"/></linearGradient><rect x="0" y="0" width="1929" height="1080" transform="matrix(1,0,0,1,0,0)" fill="url(#_lgradient_1)"/><g><linearGradient id="_lgradient_2" x1="0" y1="0.5" x2="1" y2="0.5" gradientTransform="matrix(531,0,0,338,0,742)" gradientUnits="userSpaceOnUse"><stop offset="0%" stop-opacity="0.23" style="stop-color:rgb(124,220,255)"/><stop offset="100%" stop-opacity="0.22" style="stop-color:rgb(198,255,180)"/></linearGradient><path d=" M 0 742 L 367 911 L 531 1080 L 85.467 1080 L 0 1080 L 0 742 Z " fill="url(#_lgradient_2)"/><linearGradient id="_lgradient_3" x1="0" y1="0.5" x2="1" y2="0.5" gradientTransform="matrix(635,0,0,232,509,848)" gradientUnits="userSpaceOnUse"><stop offset="0%" stop-opacity="0.65" style="stop-color:rgb(85,232,255)"/><stop offset="100%" stop-opacity="0.22" style="stop-color:rgb(198,255,180)"/></linearGradient><path d=" M 553.941 1062 Q 567.75 1048.5 901 848 L 1016 979 L 1144 1080 L 509 1080 Q 540.132 1075.5 553.941 1062 Z " fill="url(#_lgradient_3)"/><linearGradient id="_lgradient_4" x1="0" y1="0.5" x2="1" y2="0.5" gradientTransform="matrix(469.982,0,0,169,1004.018,911)" gradientUnits="userSpaceOnUse"><stop offset="0%" stop-opacity="0.23" style="stop-color:rgb(127,170,215)"/><stop offset="100%" stop-opacity="0.22" style="stop-color:rgb(198,255,180)"/></linearGradient><path d=" M 1127 911 L 1474 1080 L 1114.926 1080 L 1004.018 979 L 1127 911 Z " fill="url(#_lgradient_4)"/><linearGradient id="_lgradient_5" x1="0" y1="0.5" x2="1" y2="0.5" gradientTransform="matrix(430,0,0,270,1451,810)" gradientUnits="userSpaceOnUse"><stop offset="0%" stop-opacity="0.23" style="stop-color:rgb(127,181,215)"/><stop offset="100%" stop-opacity="0.22" style="stop-color:rgb(198,255,180)"/></linearGradient><path d=" M 1718 810 L 1451 1080 L 1881 1080 L 1718 810 Z " fill="url(#_lgradient_5)"/></g></g></svg>